<mxfile host="app.diagrams.net" modified="2023-05-15T23:40:30.703Z" agent="Mozilla/5.0 (X11; Linux x86_64; rv:102.0) Gecko/20100101 Firefox/102.0" version="21.3.0" etag="TwLaPnDOOXIGW2XCUPqX" type="github">
  <diagram name="Page-1" id="5WdfEQyQ2zMiiDahbpYa">
    <mxGraphModel>
      <root>
        <mxCell id="0" />
        <mxCell id="1" parent="0" />
      </root>
    </mxGraphModel>
  </diagram>
</mxfile>
